<svg xmlns="http://www.w3.org/2000/svg" width="30.1" height="30.1" viewBox="0 0 30.1 30.1">
  <defs>
    <style>
      .cls-1 {
        fill: #fd5353;
      }
    </style>
  </defs>
  <g id="Group_240" data-name="Group 240" transform="translate(-102 -571)">
    <path id="Path_375" data-name="Path 375" class="cls-1" d="M21.357,0H8.744A8.754,8.754,0,0,0,0,8.744V21.356A8.754,8.754,0,0,0,8.744,30.1H21.356A8.753,8.753,0,0,0,30.1,21.357V8.744A8.753,8.753,0,0,0,21.357,0Zm6.392,21.356a6.4,6.4,0,0,1-6.392,6.392H8.744a6.4,6.4,0,0,1-6.392-6.392V8.744A6.4,6.4,0,0,1,8.744,2.352H21.356a6.4,6.4,0,0,1,6.392,6.392Z" transform="translate(102 571)"/>
    <path id="Path_376" data-name="Path 376" class="cls-1" d="M126.113,118A8.122,8.122,0,0,0,118,126.113c0,2.416,1.061,4.588,3.58,6.726a7.284,7.284,0,0,0,4.533,1.387,8.113,8.113,0,1,0,0-16.226Zm0,13.874a5.761,5.761,0,1,1,5.761-5.761A5.768,5.768,0,0,1,126.113,131.874Z" transform="translate(-9.062 459.938)"/>
    <circle id="Ellipse_27" data-name="Ellipse 27" class="cls-1" cx="1.668" cy="1.668" r="1.668" transform="translate(123.613 576.152)"/>
  </g>
</svg>
