<svg id="BACKGROUND_1" data-name="BACKGROUND 1" xmlns="http://www.w3.org/2000/svg" viewBox="0 0 294.19 262.91"><defs><style>.cls-1,.cls-4{fill:#231f20;}.cls-1,.cls-10{opacity:0.1;}.cls-2{fill:#27aae1;}.cls-3{opacity:0.2;}.cls-5{fill:#f1f2f2;}.cls-6{fill:#e6e7e8;}.cls-7{fill:#fff;}.cls-12,.cls-14,.cls-8{fill:#414042;}.cls-9{fill:#b2875d;}.cls-11{fill:#c49a6c;}.cls-12{font-size:36px;font-family:Montserrat-Black, Montserrat;}.cls-13{letter-spacing:-0.01em;}.cls-14{font-size:13px;font-family:Montserrat-Regular, Montserrat;}.cls-15{letter-spacing:0em;}.cls-16{letter-spacing:-0.01em;}.cls-17{letter-spacing:-0.03em;}.cls-18{letter-spacing:-0.01em;}.cls-19{letter-spacing:0em;}</style></defs><title>sorry</title><path class="cls-1" d="M398.1,321.23c0,6.6-65.86,5.75-147.1,5.75s-147.1.84-147.1-5.75,65.86-11.94,147.1-11.94S398.1,314.63,398.1,321.23Z" transform="translate(-103.9 -64.11)"/><circle class="cls-2" cx="145.23" cy="94.76" r="53.54"/><circle class="cls-2" cx="130.08" cy="50.75" r="50.75"/><circle class="cls-2" cx="181.61" cy="47.47" r="28.05"/><circle class="cls-2" cx="111.21" cy="87.54" r="51.79"/><circle class="cls-2" cx="188.87" cy="91.34" r="47.8"/><g class="cls-3"><polygon class="cls-4" points="172.32 34.1 172.35 34.08 108.11 34.08 108.11 134.4 201.56 134.85 189.81 51.69 172.32 34.1"/></g><polygon class="cls-5" points="168.75 32.9 168.78 32.88 104.54 32.88 104.54 133.2 187.9 133.2 187.9 52.04 168.75 32.9"/><rect class="cls-6" x="109.34" y="40.62" width="63.67" height="1.1"/><rect class="cls-6" x="109.34" y="50.48" width="74" height="1.1"/><rect class="cls-6" x="109.34" y="60.35" width="74" height="1.1"/><rect class="cls-6" x="109.34" y="70.21" width="74" height="1.1"/><rect class="cls-6" x="109.34" y="80.08" width="74" height="1.1"/><rect class="cls-6" x="109.34" y="89.95" width="74" height="1.1"/><rect class="cls-6" x="109.34" y="99.81" width="74" height="1.1"/><rect class="cls-6" x="109.34" y="109.68" width="74" height="1.1"/><rect class="cls-6" x="109.34" y="119.54" width="74" height="1.1"/><rect class="cls-6" x="109.34" y="129.41" width="74" height="1.1"/><polygon class="cls-7" points="187.9 52.05 168.75 52.05 168.75 32.9 187.9 52.05"/><circle class="cls-7" cx="127.8" cy="68.52" r="11.73"/><circle class="cls-8" cx="127.8" cy="68.52" r="8.69"/><circle class="cls-7" cx="125.17" cy="62.52" r="2.96"/><circle class="cls-7" cx="122.2" cy="68.71" r="1.47"/><circle class="cls-7" cx="125.45" cy="72.71" r="2.25"/><path class="cls-7" d="M239.21,134c-2.6.4-2.92.73-3.33,3.33-.4-2.6-.73-2.92-3.33-3.33,2.6-.4,2.92-.73,3.33-3.33C236.29,133.31,236.61,133.64,239.21,134Z" transform="translate(-103.9 -64.11)"/><circle class="cls-7" cx="165.43" cy="68.52" r="11.73"/><circle class="cls-8" cx="165.43" cy="68.52" r="8.69"/><circle class="cls-7" cx="162.81" cy="62.52" r="2.96"/><circle class="cls-7" cx="159.83" cy="68.71" r="1.47"/><circle class="cls-7" cx="163.09" cy="72.71" r="2.25"/><path class="cls-7" d="M276.84,134c-2.6.4-2.92.73-3.33,3.33-.4-2.6-.73-2.92-3.33-3.33,2.6-.4,2.92-.73,3.33-3.33C273.92,133.31,274.25,133.64,276.84,134Z" transform="translate(-103.9 -64.11)"/><path class="cls-8" d="M265.87,166.09a1.75,1.75,0,0,1-1.75-1.75,13.6,13.6,0,0,0-27.2,0,1.75,1.75,0,0,1-3.5,0,17.1,17.1,0,1,1,34.19,0A1.75,1.75,0,0,1,265.87,166.09Z" transform="translate(-103.9 -64.11)"/><polygon class="cls-9" points="244.38 256.32 47.91 256.32 47.92 104.9 244.38 104.9 244.38 256.32"/><g class="cls-10"><rect class="cls-7" x="48.02" y="168.25" width="19.96" height="10.95"/></g><g class="cls-10"><rect class="cls-7" x="48.02" y="193.75" width="19.96" height="10.95"/></g><g class="cls-10"><rect class="cls-7" x="48.02" y="219.25" width="19.96" height="10.95"/></g><g class="cls-10"><rect class="cls-7" x="224.39" y="168.25" width="19.96" height="10.95"/></g><g class="cls-10"><rect class="cls-7" x="224.39" y="193.75" width="19.96" height="10.95"/></g><g class="cls-10"><rect class="cls-7" x="224.39" y="219.25" width="19.96" height="10.95"/></g><polygon class="cls-11" points="282.38 145.4 241.97 107.45 244.38 104.9 284.78 142.86 282.38 145.4"/><polygon class="cls-11" points="9.92 145.4 50.33 107.45 47.92 104.9 7.52 142.86 9.92 145.4"/><polygon class="cls-11" points="257.49 155.24 34.8 155.24 47.92 104.9 244.38 104.9 257.49 155.24"/><text class="cls-12" transform="translate(80.24 213.43)">SOR<tspan class="cls-13" x="81" y="0">R</tspan><tspan x="107.46" y="0">Y</tspan></text><text class="cls-14" transform="translate(63.98 234.7)">R<tspan class="cls-15" x="9.4" y="0">E</tspan><tspan x="18.04" y="0">GI</tspan><tspan class="cls-16" x="32.02" y="0">S</tspan><tspan x="39.88" y="0">TR</tspan><tspan class="cls-17" x="56.74" y="0">A</tspan><tspan x="65.61" y="0">TIONS C</tspan><tspan class="cls-18" x="119.22" y="0">L</tspan><tspan class="cls-19" x="126.7" y="0">OSED</tspan></text></svg>